<?xml version="1.0" encoding="utf-8"?>
<!-- Generator: Adobe Illustrator 22.1.0, SVG Export Plug-In . SVG Version: 6.00 Build 0)  -->
<svg version="1.1" id="Layer_1" xmlns="http://www.w3.org/2000/svg" xmlns:xlink="http://www.w3.org/1999/xlink" x="0px" y="0px"
	 width="100px" height="101.7px" viewBox="0 0 100 101.7" style="enable-background:new 0 0 100 101.7;" xml:space="preserve">
<style type="text/css">
	.st0{stroke:#000000;stroke-miterlimit:10;}
	.st1{fill:url(#SVGID_1_);}
	.st2{fill:url(#SVGID_2_);}
	.st3{fill:url(#SVGID_3_);}
	.st4{fill:url(#SVGID_4_);}
	.st5{fill:url(#SVGID_5_);}
	.st6{fill:url(#SVGID_6_);}
	.st7{fill:url(#SVGID_7_);}
	.st8{fill:url(#SVGID_8_);}
	.st9{enable-background:new    ;}
	.st10{fill:url(#SVGID_9_);}
	.st11{fill:url(#SVGID_10_);}
	.st12{fill:url(#SVGID_11_);}
	.st13{fill:#333333;}
	.st14{fill:url(#SVGID_12_);}
</style>
<g>
	<path class="st13" d="M36.2,56.1c0.3,0,0.5-0.1,0.6-0.4c0.7-1.6,3.5-8.4,3.5-10.8v-8.7c0-0.5-0.3-0.8-0.8-1c0-0.1,0.1-0.2,0.1-0.3
		V20.7c0-0.8-0.7-1.4-1.5-1.4h-0.3v-0.1c0-0.8-0.7-1.4-1.5-1.4H25.4c-0.8,0-1.5,0.6-1.5,1.4v0.1h-0.3c-0.8,0-1.5,0.6-1.5,1.4v14.2
		c0,0.1,0,0.2,0,0.3H22c-0.5,0-1,0.4-1,1v8.7c0,2.5,3.2,9.3,4.1,10.8c0.1,0.2,0.3,0.3,0.6,0.3L36.2,56.1L36.2,56.1z M23.2,20.7
		c0-0.1,0.1-0.3,0.3-0.3h1.5v-1.2c0-0.1,0.1-0.3,0.3-0.3h10.8c0.2,0,0.3,0.1,0.3,0.3v1.2h1.5c0.2,0,0.3,0.1,0.3,0.3v14.2
		c0,0.1-0.1,0.3-0.3,0.3h-1.8v-9.1c0-0.2-0.1-0.3-0.3-0.3l0,0c-0.2,0-0.3,0.1-0.3,0.3v9.1h-1v-9.1c0-0.2-0.1-0.3-0.3-0.3l0,0
		c-0.2,0-0.3,0.1-0.3,0.3v9.1h-1v-9.1c0-0.2-0.1-0.3-0.3-0.3l0,0c-0.2,0-0.3,0.1-0.3,0.3v9.1h-1v-9.1c0-0.2-0.1-0.3-0.3-0.3l0,0
		c-0.2,0-0.3,0.1-0.3,0.3v9.1h-1v-9.1c0-0.2-0.1-0.3-0.3-0.3l0,0c-0.2,0-0.3,0.1-0.3,0.3v9.1h-1v-9.1c0-0.2-0.1-0.3-0.3-0.3l0,0
		c-0.2,0-0.3,0.1-0.3,0.3v9.1h-1v-9.1c0-0.2-0.1-0.3-0.3-0.3l0,0c-0.2,0-0.3,0.1-0.3,0.3v9.1h-1.8c-0.2,0-0.3-0.1-0.3-0.3V20.7z"/>
	<path class="st13" d="M25.7,24.8L25.7,24.8c0.3,0,0.5-0.2,0.5-0.5v-3.4c0-0.3-0.2-0.5-0.5-0.5c-0.3,0-0.5,0.2-0.5,0.5v3.4
		C25.3,24.6,25.5,24.8,25.7,24.8z M25.6,20.9c0-0.1,0.1-0.1,0.2-0.1c0.1,0,0.1,0.1,0.1,0.1v3.4c0,0.1-0.1,0.1-0.1,0.1l0,0
		c-0.1,0-0.1-0.1-0.1-0.1L25.6,20.9L25.6,20.9z"/>
	<path class="st13" d="M27.3,24.8L27.3,24.8c0.3,0,0.5-0.2,0.5-0.5v-3.4c0-0.3-0.2-0.5-0.5-0.5c-0.3,0-0.5,0.2-0.5,0.5v3.4
		C26.8,24.6,27,24.8,27.3,24.8z M27.2,20.9c0-0.1,0.1-0.1,0.1-0.1c0.1,0,0.1,0.1,0.1,0.1v3.4c0,0.1-0.1,0.1-0.1,0.1l0,0
		c-0.1,0-0.1-0.1-0.1-0.1C27.2,24.4,27.2,20.9,27.2,20.9z"/>
	<path class="st13" d="M29.1,24.8L29.1,24.8c0.3,0,0.5-0.2,0.5-0.5v-3.4c0-0.3-0.2-0.5-0.5-0.5c-0.3,0-0.5,0.2-0.5,0.5v3.4
		C28.5,24.6,28.8,24.8,29.1,24.8z M28.9,20.9c0-0.1,0.1-0.1,0.1-0.1c0.1,0,0.1,0,0.1,0.1v3.4c0,0.1-0.1,0.1-0.1,0.1l0,0
		c-0.1,0-0.1-0.1-0.1-0.1C28.9,24.3,28.9,20.9,28.9,20.9z"/>
	<path class="st13" d="M30.8,24.8L30.8,24.8c0.3,0,0.5-0.2,0.5-0.5v-3.4c0-0.3-0.2-0.5-0.5-0.5c-0.3,0-0.5,0.2-0.5,0.5v3.4
		C30.3,24.6,30.5,24.8,30.8,24.8z M30.7,20.9c0-0.1,0.1-0.1,0.1-0.1S31,20.9,31,21v3.4c0,0.1-0.1,0.1-0.1,0.1l0,0
		c-0.1,0-0.1-0.1-0.1-0.1V20.9z"/>
	<path class="st13" d="M32.6,24.8L32.6,24.8c0.3,0,0.5-0.2,0.5-0.5v-3.4c0-0.3-0.2-0.5-0.5-0.5c-0.3,0-0.5,0.2-0.5,0.5v3.4
		C32.1,24.6,32.3,24.8,32.6,24.8z M32.4,20.9c0-0.1,0.1-0.1,0.2-0.1c0.1,0,0.1,0.1,0.1,0.1v3.4c0,0.1-0.1,0.1-0.1,0.1l0,0
		c-0.1,0-0.1-0.1-0.1-0.1L32.4,20.9L32.4,20.9z"/>
	<path class="st13" d="M34.3,24.8L34.3,24.8c0.3,0,0.5-0.2,0.5-0.5v-3.4c0-0.3-0.2-0.5-0.5-0.5c-0.3,0-0.5,0.2-0.5,0.5v3.4
		C33.8,24.6,34.1,24.8,34.3,24.8z M34.2,20.9c0-0.1,0.1-0.1,0.1-0.1s0.1,0.1,0.1,0.1v3.4c0,0.1-0.1,0.1-0.1,0.1l0,0
		c-0.1,0-0.1-0.1-0.1-0.1V20.9z"/>
	<path class="st13" d="M35.9,24.8L35.9,24.8c0.3,0,0.5-0.2,0.5-0.5v-3.4c0-0.3-0.2-0.5-0.5-0.5c-0.3,0-0.5,0.2-0.5,0.5v3.4
		C35.3,24.6,35.6,24.8,35.9,24.8z M35.8,20.9c0-0.1,0.1-0.1,0.1-0.1c0.1,0,0.1,0,0.1,0.1v3.4c0,0.1-0.1,0.1-0.1,0.1l0,0
		c-0.1,0-0.1-0.1-0.1-0.1C35.8,24.3,35.8,20.9,35.8,20.9z"/>
	<path class="st13" d="M36.6,57.9c0-0.4-0.3-0.7-0.7-0.7h-9.5c-0.4,0-0.7,0.3-0.7,0.7s0.3,0.7,0.7,0.7h9.5
		C36.2,58.7,36.6,58.3,36.6,57.9z"/>
	<path class="st13" d="M34.9,61.1c0.4,0,0.7-0.3,0.7-0.7s-0.3-0.7-0.7-0.7h-7.8c-0.4,0-0.7,0.3-0.7,0.7s0.3,0.7,0.7,0.7H34.9z"/>
	<path class="st13" d="M34.9,62.7c0-0.4-0.3-0.7-0.7-0.7h-6.4c-0.4,0-0.7,0.3-0.7,0.7s0.3,0.7,0.7,0.7h6.4
		C34.6,63.6,34.9,63.2,34.9,62.7z"/>
	<path class="st13" d="M78.3,45.2c-10.4,0-17.8,6.6-18.7,18.7c-0.6,7.6-5.7,14.1-12.8,14.2c-7.1,0-12.8-6.1-12.8-13.5h-5.9
		c0,10.6,8.3,19.3,18.6,19.4l0,0h0.1h0.1l0,0c10.2-0.1,17.8-8.6,18.6-19.4c0.7-9.1,5.8-13.4,12.9-13.5l0,0c0.4,0,0.7-1.3,0.7-2.9
		S78.7,45.2,78.3,45.2z"/>
</g>
</svg>
