<?xml version="1.0" encoding="utf-8"?>
<!-- Generator: Adobe Illustrator 22.1.0, SVG Export Plug-In . SVG Version: 6.00 Build 0)  -->
<svg version="1.1" id="Layer_1" xmlns="http://www.w3.org/2000/svg" xmlns:xlink="http://www.w3.org/1999/xlink" x="0px" y="0px"
	 width="100px" height="101.7px" viewBox="0 0 100 101.7" style="enable-background:new 0 0 100 101.7;" xml:space="preserve">
<style type="text/css">
	.st0{stroke:#000000;stroke-miterlimit:10;}
	.st1{fill:url(#SVGID_1_);}
	.st2{fill:url(#SVGID_2_);}
	.st3{fill:url(#SVGID_3_);}
	.st4{fill:url(#SVGID_4_);}
	.st5{fill:url(#SVGID_5_);}
	.st6{fill:url(#SVGID_6_);}
	.st7{fill:url(#SVGID_7_);}
	.st8{fill:url(#SVGID_8_);}
	.st9{enable-background:new    ;}
	.st10{fill:url(#SVGID_9_);}
	.st11{fill:url(#SVGID_10_);}
	.st12{fill:url(#SVGID_11_);}
	.st13{fill:#333333;}
	.st14{fill:url(#SVGID_12_);}
</style>
<g>
	<path class="st13" d="M89.4,29H41.2v-8.1c0-1.3-1.1-2.5-2.5-2.5H9.5c-1.4,0-2.5,1.1-2.5,2.5v58.2c0,1.3,1.1,2.5,2.5,2.5h29.3
		c1.4,0,2.5-1.1,2.5-2.5v-5.3H57l-1,2.6h-8.5c-0.4,0-0.7,0.1-1,0.4l-3.7,4.4c-0.4,0.4-0.4,0.8-0.2,1.3c0.2,0.5,0.6,0.7,1.1,0.7h35
		c0.5,0,1-0.2,1.1-0.7c0.2-0.5,0.1-1-0.2-1.3L75.1,77c-0.2-0.2-0.5-0.4-0.8-0.4h-8.4l-0.5-2.8h23.9c2,0,3.7-1.7,3.7-3.7V32.7
		C93.1,30.7,91.4,29,89.4,29z M38.8,79L38.8,79L9.4,79.1c-0.1,0-0.1,0-0.1-0.1V20.8c0,0,0-0.1,0.1-0.1h29.3c0.1,0,0.1,0,0.1,0.1v8.1
		h-5.7c-1.3,0-2.5,0.7-3.2,1.8H15c-0.7,0-1.2,0.5-1.2,1.2c0,0.7,0.5,1.2,1.2,1.2h14.5v36.8c0,2,1.7,3.7,3.7,3.7h5.7V79H38.8z
		 M63.7,77.9c0.1,0.6,0.6,1,1.2,1h8.9l2,1.9H46.5l1.7-1.9H57c0.5,0,1-0.4,1.2-0.8l1.3-4.3h3.7L63.7,77.9z M90.7,70
		c0,0.7-0.6,1.3-1.3,1.3H33.2c-0.7,0-1.3-0.6-1.3-1.3V32.7c0-0.7,0.6-1.3,1.3-1.3h56.2c0.7,0,1.3,0.6,1.3,1.3V70z"/>
	<path class="st13" d="M87.6,33.4H35c-0.7,0-1.2,0.5-1.2,1.2v33.5c0,0.7,0.5,1.2,1.2,1.2h52.6c0.7,0,1.2-0.5,1.2-1.2V34.6
		C88.8,33.9,88.2,33.4,87.6,33.4z M86.4,66.9H36.2V35.8h50.2V66.9z"/>
	<path class="st13" d="M69.6,52.1c0.2,0,0.6-0.1,0.8-0.4l12.7-11.2c0.5-0.5,0.6-1.2,0.1-1.7c-0.5-0.5-1.2-0.6-1.7-0.1L68.8,50
		c-0.5,0.5-0.6,1.2-0.1,1.7C69,52,69.3,52.1,69.6,52.1z"/>
	<path class="st13" d="M81.5,45.2l-7.1,6.2c-0.5,0.5-0.6,1.2-0.1,1.7c0.2,0.2,0.6,0.4,0.8,0.4c0.2,0,0.6-0.1,0.8-0.4l7.1-6.2
		c0.5-0.5,0.6-1.2,0.1-1.7C82.7,44.8,82,44.8,81.5,45.2z"/>
	<path class="st13" d="M15,27.9h19.7c0.7,0,1.2-0.5,1.2-1.2s-0.5-1.2-1.2-1.2H15c-0.7,0-1.2,0.5-1.2,1.2S14.3,27.9,15,27.9z"/>
	<circle class="st13" cx="24.1" cy="64.2" r="1.8"/>
	<path class="st13" d="M24.7,69.3h-1.2c-0.4,0-0.6,0.2-0.6,0.6v1.2c0,0.4,0.2,0.6,0.6,0.6h1.2c0.4,0,0.6-0.2,0.6-0.6v-1.2
		C25.3,69.6,25.1,69.3,24.7,69.3z"/>
</g>
</svg>
