<?xml version="1.0" encoding="utf-8"?>
<!-- Generator: Adobe Illustrator 22.1.0, SVG Export Plug-In . SVG Version: 6.00 Build 0)  -->
<svg version="1.1" id="Layer_1" xmlns="http://www.w3.org/2000/svg" xmlns:xlink="http://www.w3.org/1999/xlink" x="0px" y="0px"
	 width="100px" height="101.7px" viewBox="0 0 100 101.7" style="enable-background:new 0 0 100 101.7;" xml:space="preserve">
<style type="text/css">
	.st0{stroke:#000000;stroke-miterlimit:10;}
	.st1{fill:url(#SVGID_1_);}
	.st2{fill:url(#SVGID_2_);}
	.st3{fill:url(#SVGID_3_);}
	.st4{fill:url(#SVGID_4_);}
	.st5{fill:url(#SVGID_5_);}
	.st6{fill:url(#SVGID_6_);}
	.st7{fill:url(#SVGID_7_);}
	.st8{fill:url(#SVGID_8_);}
	.st9{enable-background:new    ;}
	.st10{fill:url(#SVGID_9_);}
	.st11{fill:url(#SVGID_10_);}
	.st12{fill:url(#SVGID_11_);}
	.st13{fill:#333333;}
	.st14{fill:url(#SVGID_12_);}
</style>
<g>
	<path class="st13" d="M11.8,36.8v-2.9c0-1.3,0.9-2.4,2.2-2.6l3.4-0.6c0.4-1.5,1-2.9,1.8-4.2l-2-2.8c-0.7-1-0.6-2.5,0.3-3.3l2-2
		c0.9-0.9,2.3-1,3.3-0.3l2.8,2c1.3-0.8,2.8-1.4,4.2-1.8l0.6-3.4c0.2-1.3,1.3-2.2,2.6-2.2H36c1.3,0,2.4,0.9,2.6,2.2l0.6,3.4
		c1.5,0.4,2.9,1,4.2,1.8l2.8-2c1-0.7,2.5-0.6,3.3,0.3l2.1,2c0.9,0.9,1,2.3,0.3,3.3l-2,2.8c0.6,1,1.1,2.1,1.4,3.2
		c-0.8,1-1.4,2.3-1.6,3.6l-0.3,1.6l-0.8,0.4l-1.3-0.9c-1.3-0.9-3-1.5-4.6-1.5c-0.3,0-0.5,0-0.8,0.1c-1.3-4.1-5.7-6.3-9.8-5
		c-4.1,1.3-6.3,5.7-5,9.8c0.8,2.4,2.6,4.2,5,5c-0.2,1.9,0.3,3.8,1.4,5.4l0.9,1.3c-0.1,0.3-0.2,0.6-0.4,0.8l-1.6,0.3
		c-1.3,0.2-2.6,0.8-3.6,1.6c-1.1-0.4-2.2-0.8-3.2-1.4l-2.8,2c-1,0.7-2.4,0.6-3.3-0.3l-2-2.1c-0.9-0.9-1-2.3-0.3-3.3l2-2.8
		c-0.8-1.3-1.4-2.8-1.8-4.2L14,39.4C12.7,39.2,11.8,38.1,11.8,36.8z M48.1,40.7c1.7-1,3.5-1.7,5.4-2.2l0.8-4.3
		c0.3-1.6,1.7-2.7,3.3-2.7h3.7c1.6,0,3,1.2,3.3,2.7l0.8,4.3c1.9,0.5,3.7,1.3,5.4,2.2l3.6-2.5c1.3-0.9,3.1-0.8,4.3,0.4l2.6,2.6
		c1.1,1.1,1.3,2.9,0.4,4.3L78.9,49c1,1.7,1.7,3.5,2.2,5.4l4.3,0.8c1.6,0.3,2.7,1.7,2.7,3.3V62c0,1.6-1.2,3-2.7,3.3l-4.3,0.8
		c-0.5,1.9-1.3,3.7-2.2,5.4l2.5,3.6c0.9,1.3,0.8,3.1-0.4,4.3l-2.6,2.6c-1.1,1.1-2.9,1.3-4.3,0.4l-3.6-2.5c-1.7,1-3.5,1.7-5.4,2.2
		l-0.8,4.3c-0.3,1.6-1.7,2.8-3.3,2.8h-3.6c-1.6,0-3-1.2-3.3-2.7L53.5,82c-1.9-0.5-3.7-1.3-5.4-2.2l-3.6,2.5
		c-1.3,0.9-3.1,0.8-4.3-0.4l-2.6-2.6c-1.1-1.1-1.3-2.9-0.4-4.3l2.5-3.6c-1-1.7-1.7-3.5-2.2-5.4l-4.3-0.8c-1.6-0.3-2.8-1.7-2.7-3.3
		v-3.7c0-1.6,1.2-3,2.7-3.3l4.3-0.8c0.5-1.9,1.3-3.7,2.2-5.4l-2.5-3.6c-0.9-1.3-0.8-3.1,0.4-4.3l2.6-2.6c1.1-1.1,2.9-1.3,4.3-0.4
		L48.1,40.7z M51.6,62.7l1.7,1.7l1.8,1.8c1,1,2.6,1,3.6,0c0,0,0,0,0,0l1.8-1.8l6.5-6.5c1-1,1-2.6,0-3.6l0,0c-1-1-2.6-1-3.6,0
		c0,0,0,0,0,0l-6.5,6.5l-1.7-1.7c-1-1-2.6-1-3.6,0l0,0C50.6,60.1,50.6,61.7,51.6,62.7z"/>
</g>
</svg>
