<?xml version="1.0" encoding="utf-8"?>
<!-- Generator: Adobe Illustrator 22.1.0, SVG Export Plug-In . SVG Version: 6.00 Build 0)  -->
<svg version="1.1" id="Layer_1" xmlns="http://www.w3.org/2000/svg" xmlns:xlink="http://www.w3.org/1999/xlink" x="0px" y="0px"
	 viewBox="0 0 4000 930" style="enable-background:new 0 0 4000 930;" xml:space="preserve">
<style type="text/css">
	.st0{fill:url(#SVGID_1_);}
	.st1{fill:url(#SVGID_2_);}
	.st2{fill:url(#SVGID_3_);}
	.st3{fill:#ffffff;}
	.st4{enable-background:new    ;}
	.st5{fill:none;}
	.st6{fill:url(#SVGID_4_);}
	.st7{fill:url(#SVGID_5_);}
	.st8{fill:url(#SVGID_6_);}
	.st9{fill:url(#SVGID_7_);}
	.st10{fill:url(#SVGID_8_);}
</style>
<image style="display:none;overflow:visible;enable-background:new    ;" width="1001" height="1001" xlink:href="8F8CC78549580C05.jpeg"  transform="matrix(0.999 0 0 0.999 990.8694 -418.0801)">
</image>
<g id="E">
	<g>
		
			<linearGradient id="SVGID_1_" gradientUnits="userSpaceOnUse" x1="605.1236" y1="-1223.755" x2="1169.7393" y2="-1223.755" gradientTransform="matrix(1 0 0 -1 0 -730.7244)">
			<stop  offset="0" style="stop-color:#0658D1"/>
			<stop  offset="0.3988" style="stop-color:#0658D1"/>
		</linearGradient>
		<polygon class="st0" points="605.1,310.5 709,310.5 773.2,554.4 845.7,310.5 934.5,310.5 1006.5,554.4 1071.2,310.5 1169.7,310.5 
			1051.9,675.6 958.2,675.6 899.3,441.4 887.7,441.4 821.5,675.6 722,675.6 		"/>
		
			<linearGradient id="SVGID_2_" gradientUnits="userSpaceOnUse" x1="1548.4039" y1="-1148.6499" x2="1928.0342" y2="-1148.6499" gradientTransform="matrix(1 0 0 -1 0 -730.7244)">
			<stop  offset="0" style="stop-color:#0658D1"/>
			<stop  offset="0.3988" style="stop-color:#0658D1"/>
		</linearGradient>
		<path class="st1" d="M1738.2,297.9c-35.3,0-68.1,9.7-96.1,26.1V158.3h-93.7v323.6l0,0c0,1.9,0,3.9,0,5.8
			c0,104.8,85,189.8,189.8,189.8c104.8,0,189.8-85,189.8-189.8S1843,297.9,1738.2,297.9z M1736.3,593.5
			c-57.5,0-103.8-46.4-103.8-103.8s46.4-103.8,103.8-103.8s103.8,46.4,103.8,103.8C1840.1,546.6,1793.8,593.5,1736.3,593.5z"/>
		
			<linearGradient id="SVGID_3_" gradientUnits="userSpaceOnUse" x1="1148.0049" y1="-1216.5101" x2="1527.6353" y2="-1216.5101" gradientTransform="matrix(1 0 0 -1 0 -730.7244)">
			<stop  offset="0" style="stop-color:#0658D1"/>
			<stop  offset="0.3988" style="stop-color:#0658D1"/>
		</linearGradient>
		<path class="st2" d="M1527.6,485.8c0-104.8-85-189.8-189.8-189.8C1233,296,1148,381,1148,485.8s85,189.8,189.8,189.8
			c81.1,0,150.2-50.7,177.3-122.7l-100-0.5c0,0-8.2,43-86,45.4c-78.2,2.9-85.5-76.3-85.5-76.3h280.6
			C1524.3,522,1527.6,509.5,1527.6,485.8z M1433.5,452.9h-192.7c0,0-2.9-85.5,96.1-83.6C1436.4,371.3,1433.5,452.9,1433.5,452.9z"/>
		<path class="st3" d="M2493.1,425.4l-5.8-26.6c-8.7-27.5-23.7-45.9-37.7-57.5c-47.3-38.6-117.4-34.3-162.3-26.1V153h-93.7v522.6
			h93.7V406.1c35.7-8.7,86-13,105.8,3.9c2.4,1.9,4.3,4.3,6.3,7.2v255h93.7V470.8C2492.7,451.5,2494.6,438.5,2493.1,425.4z"/>
		<path class="st3" d="M2899.8,485.8c0-104.8-85-189.8-189.8-189.8c-104.8,0-189.8,85-189.8,189.8s85,189.8,189.8,189.8
			c81.1,0,150.2-50.7,177.3-122.7l-100-0.5c0,0-8.2,43-86,45.4c-78.2,2.9-85.5-76.3-85.5-76.3h280.6
			C2895.9,522,2899.8,509.5,2899.8,485.8z M2805.6,452.9h-192.7c0,0-2.9-85.5,96.1-83.6C2808,371.3,2805.6,452.9,2805.6,452.9z"/>
		<path class="st3" d="M3102.2,307.1c-101.4,0-184,82.6-184,184s82.6,184,184,184s184-82.6,184-184
			C3286.2,389.7,3203.6,307.1,3102.2,307.1z M3102.2,591.6c-55.1,0-100.5-44.9-100.5-100.5c0-55.1,44.9-100.5,100.5-100.5
			c55.1,0,100.5,44.9,100.5,100.5C3202.6,546.6,3157.2,591.6,3102.2,591.6z"/>
		<path class="st3" d="M1979.2,296h-183.5c0,0,83.1,18.4,119.8,101.4h63.8V296z"/>
		<g class="st4">
			<path class="st3" d="M3303.6,675.6V310h90.8v44c7.7-12.6,16.4-22.2,25.1-29c8.7-6.8,17.4-12.1,26.6-15.9c9.2-3.9,18.4-6.3,28-7.2
				c9.2-1,19.3-1.4,29-1.4h12.6v99c-8.7-1.4-17.9-2.4-26.6-2.4c-58.9,0-88.4,29.5-88.4,88.4v190.3H3303.6z"/>
			<path class="st3" d="M3775.5,627.3c-6.8,16.4-19.3,29-37.7,38.2c-17.9,9.2-38.6,13.5-61.3,13.5c-19.3,0-37.2-2.9-53.6-9.2
				c-16.4-6.3-30.4-15-42.5-26.6s-21.3-25.6-28-41.5c-6.8-15.9-10.1-34.3-10.1-54.6V310h96.6v223.1c0,45.4,20.8,68.6,61.8,68.6
				c22.2,0,40.1-6.3,54.1-19.3c13.5-13,20.3-29.5,20.3-49.3V310h96.6v375.8c0,25.6-4.3,48.8-13,69.1s-20.8,37.7-35.7,51.2
				c-15,14-32.8,24.6-53.6,31.9c-20.8,7.2-42.5,11.1-65.7,11.1c-54.1,0-94.7-13.5-121.2-41.1c-26.6-27-40.1-64.7-40.1-112.5h89.8
				c0,21.7,6.3,39.1,18.8,51.2c12.6,12.6,31.4,18.4,57,18.4c8.7,0,17.4-1.9,25.1-5.8c7.7-3.9,15-8.7,21.3-15.5
				c6.3-6.8,11.1-15,15-25.1c3.9-10.1,5.8-20.8,5.8-32.8v-58.4H3775.5z"/>
		</g>
		<g>
			<line class="st5" x1="2167.1" y1="585.8" x2="2167.1" y2="672.7"/>
			<path class="st3" d="M2147.3,591.6c-97.6,10.6-91.3-52.6-91.3-52.6V401.3h92.7V295h-87.4V156.4h-98.5v375.3
				c0,0-3.4,138.6,161.3,143.9c15.5,0.5,29.9-0.5,42.5-2.9v-86.9C2161.8,588.7,2155.5,591.1,2147.3,591.6z"/>
		</g>
		
			<linearGradient id="SVGID_4_" gradientUnits="userSpaceOnUse" x1="128.412" y1="-1271.3295" x2="356.8665" y2="-1271.3295" gradientTransform="matrix(1 0 0 -1 0 -730.7244)">
			<stop  offset="0" style="stop-color:#68D000"/>
			<stop  offset="1" style="stop-color:#0658D1"/>
		</linearGradient>
		<polygon class="st6" points="128.4,452.5 128.4,546.6 274.8,628.8 356.9,584.8 		"/>
		<g>
			
				<linearGradient id="SVGID_5_" gradientUnits="userSpaceOnUse" x1="274.7581" y1="-1294.03" x2="577.5931" y2="-1294.03" gradientTransform="matrix(1 0 0 -1 0 -730.7244)">
				<stop  offset="0" style="stop-color:#68D000"/>
				<stop  offset="0" style="stop-color:#0658D1"/>
				<stop  offset="1" style="stop-color:#000000"/>
			</linearGradient>
			<polygon class="st7" points="352,674.2 274.8,628.8 577.6,452.5 577.6,544.2 			"/>
		</g>
		
			<linearGradient id="SVGID_6_" gradientUnits="userSpaceOnUse" x1="165.8438" y1="-1226.6528" x2="165.8438" y2="-970.668" gradientTransform="matrix(1 0 0 -1 0 -730.7244)">
			<stop  offset="0" style="stop-color:#68D000"/>
			<stop  offset="1" style="stop-color:#FDFF5C"/>
		</linearGradient>
		<polygon class="st8" points="128.4,283.4 203.3,239.9 203.3,495.9 128.4,452.5 		"/>
		
			<linearGradient id="SVGID_7_" gradientUnits="userSpaceOnUse" x1="203.2756" y1="-974.2904" x2="429.315" y2="-974.2904" gradientTransform="matrix(1 0 0 -1 0 -730.7244)">
			<stop  offset="0" style="stop-color:#FDFC5A"/>
			<stop  offset="1" style="stop-color:#FF9617"/>
			<stop  offset="1" style="stop-color:#FDFF5C"/>
		</linearGradient>
		<polygon class="st9" points="203.3,239.9 347.2,155.9 429.3,203.7 352,246.7 203.3,331.2 		"/>
		
			<linearGradient id="SVGID_8_" gradientUnits="userSpaceOnUse" x1="399.1281" y1="736.6523" x2="399.1281" y2="408.2189" gradientTransform="matrix(1 0 0 -1 0 932)">
			<stop  offset="0" style="stop-color:#E71A00"/>
			<stop  offset="0.2743" style="stop-color:#EE3C00"/>
			<stop  offset="0.7638" style="stop-color:#FA7500"/>
			<stop  offset="1" style="stop-color:#FF8B00"/>
			<stop  offset="1" style="stop-color:#FE1D96"/>
			<stop  offset="1" style="stop-color:#E7BB00"/>
		</linearGradient>
		<polygon class="st10" points="352,246.7 493.1,330.7 355.4,408.5 226.5,330.7 226.5,424.4 357.8,500.3 571.8,374.7 571.8,281.5 
			428.8,203.2 		"/>
	</g>
</g>
</svg>
