<?xml version="1.0" encoding="utf-8"?>
<!-- Generator: Adobe Illustrator 22.1.0, SVG Export Plug-In . SVG Version: 6.00 Build 0)  -->
<svg version="1.1" id="Layer_1" xmlns="http://www.w3.org/2000/svg" xmlns:xlink="http://www.w3.org/1999/xlink" x="0px" y="0px"
	 width="100px" height="101.7px" viewBox="0 0 100 101.7" style="enable-background:new 0 0 100 101.7;" xml:space="preserve">
<style type="text/css">
	.st0{stroke:#000000;stroke-miterlimit:10;}
	.st1{fill:url(#SVGID_1_);}
	.st2{fill:url(#SVGID_2_);}
	.st3{fill:url(#SVGID_3_);}
	.st4{fill:url(#SVGID_4_);}
	.st5{fill:url(#SVGID_5_);}
	.st6{fill:url(#SVGID_6_);}
	.st7{fill:url(#SVGID_7_);}
	.st8{fill:url(#SVGID_8_);}
	.st9{enable-background:new    ;}
	.st10{fill:url(#SVGID_9_);}
	.st11{fill:url(#SVGID_10_);}
	.st12{fill:url(#SVGID_11_);}
	.st13{fill:#333333;}
	.st14{fill:url(#SVGID_12_);}
</style>
<g>
	<g>
		<path class="st13" d="M21.9,32.6c0.2,0.1,0.5,0.2,0.8,0.2c0.5,0,1.1-0.3,1.4-0.8c0.8-1.5,2.4-2.4,4.1-2.4h31.3
			c0.9,0,1.6-0.7,1.6-1.6c0-0.9-0.7-1.6-1.6-1.6H28.1c-2.8,0-5.4,1.5-6.8,3.9C20.9,31.2,21.1,32.2,21.9,32.6"/>
		<path class="st13" d="M89.6,78.1l-9.9-9.9v-5.6c0-0.9-0.7-1.6-1.6-1.6c-0.9,0-1.6,0.7-1.6,1.6v4.7H48.4c-0.9,0-1.6,0.7-1.6,1.6
			c0,0.9,0.7,1.6,1.6,1.6h29.1l9.9,9.9c0.7,0.7,0.4,1.5,0.3,1.7c-0.1,0.2-0.5,1-1.4,1H13.7c-1,0-1.4-0.7-1.4-1
			c-0.1-0.2-0.3-1,0.3-1.7l7.2-7.2c0.6-0.6,0.6-1.6,0-2.2c-0.6-0.6-1.6-0.6-2.2,0l-7.2,7.2c-1.4,1.4-1.8,3.3-1,5.1
			c0.7,1.8,2.4,2.9,4.3,2.9h72.6c1.9,0,3.6-1.1,4.3-2.9C91.4,81.4,91,79.4,89.6,78.1"/>
		<path class="st13" d="M71.9,18.7h9.4c2,0,3.8,1.3,4.4,3.1H67.5C68.2,20.1,69.9,18.7,71.9,18.7L71.9,18.7z M81.3,54.8h-9.4
			c-2.6,0-4.7-2.1-4.7-4.7H86C86,52.7,83.9,54.8,81.3,54.8L81.3,54.8z M67.2,46.9H86V25H67.2V46.9z M71.9,57.9h9.4
			c4.3,0,7.8-3.5,7.8-7.8V23.4c0-4.3-3.5-7.8-7.8-7.8h-9.4c-4.3,0-7.8,3.5-7.8,7.8v26.6C64.1,54.4,67.6,57.9,71.9,57.9L71.9,57.9z"
			/>
		<path class="st13" d="M26.5,50.9c0-3,2.5-5.5,5.5-5.5s5.5,2.5,5.5,5.5c0,3-2.5,5.5-5.5,5.5S26.5,53.9,26.5,50.9 M40.6,50.9
			c0-4.7-3.9-8.6-8.6-8.6s-8.6,3.9-8.6,8.6s3.9,8.6,8.6,8.6S40.6,55.6,40.6,50.9"/>
		<path class="st13" d="M31.4,74.9c-5-4.7-14.3-15.7-14.3-24.1C17.1,42.6,23.8,36,32,36c8.2,0,14.9,6.7,14.9,14.9
			c0,8.2-9.4,19.3-14.4,24.1c-0.2,0.1-0.3,0.2-0.5,0.2h0C31.8,75.1,31.6,75.1,31.4,74.9L31.4,74.9z M23.4,75.1
			c-0.9,0-1.6,0.7-1.6,1.6c0,0.9,0.7,1.6,1.6,1.6h17.2c0.9,0,1.6-0.7,1.6-1.6c0-0.9-0.7-1.6-1.6-1.6h-3.9C41,70.7,50,60.1,50,50.9
			c0-9.9-8.1-18-18-18c-9.9,0-18,8.1-18,18c0,9.3,9.1,19.9,13.3,24.3H23.4z"/>
	</g>
</g>
</svg>
