<svg xmlns="http://www.w3.org/2000/svg" xmlns:xlink="http://www.w3.org/1999/xlink" width="75.291" height="86.551" viewBox="0 0 75.291 86.551">
  <defs>
    <style>
      .cls-1 {
        fill: url(#linear-gradient);
      }

      .cls-2 {
        fill: url(#linear-gradient-2);
      }

      .cls-3 {
        fill: url(#linear-gradient-3);
      }

      .cls-4 {
        fill: url(#linear-gradient-4);
      }
    </style>
    <linearGradient id="linear-gradient" x1="0.101" y1="0.501" x2="2.099" y2="0.501" gradientUnits="objectBoundingBox">
      <stop offset="0" stop-color="#ffb16e"/>
      <stop offset="1" stop-color="#f5317f"/>
    </linearGradient>
    <linearGradient id="linear-gradient-2" x1="-0.749" y1="0.499" x2="1.009" y2="0.499" xlink:href="#linear-gradient"/>
    <linearGradient id="linear-gradient-3" x1="-0.317" y1="0.499" x2="2.192" y2="0.499" xlink:href="#linear-gradient"/>
    <linearGradient id="linear-gradient-4" x1="-1.711" y1="0.5" x2="1.665" y2="0.5" xlink:href="#linear-gradient"/>
  </defs>
  <g id="repair" transform="translate(-7.35 -1.791)">
    <path id="Path_8212" data-name="Path 8212" class="cls-1" d="M42.6,53.8a5.311,5.311,0,0,1-3.1-2.4,6.032,6.032,0,0,1,1.6-8.3l.9-.6-.3-.5-5.3-3.7a2.745,2.745,0,0,0-3.8.7,2.659,2.659,0,0,0,.7,3.8,9.363,9.363,0,0,0-6,3.8L9,73.1A9.216,9.216,0,0,0,11.4,86l.4.3A9.283,9.283,0,0,0,24.7,84L43,57.5a2.507,2.507,0,0,0,.4-.7A10.239,10.239,0,0,1,42.6,53.8ZM15.2,77.1a1.29,1.29,0,1,1-2.1-1.5l17.4-25a1.29,1.29,0,1,1,2.1,1.5ZM38.3,56,21,81.1a1.29,1.29,0,1,1-2.1-1.5L36.3,54.5a1.28,1.28,0,0,1,1.8-.3A1.363,1.363,0,0,1,38.3,56Z"/>
    <path id="Path_8213" data-name="Path 8213" class="cls-2" d="M58,39a2.826,2.826,0,0,0-3.8-.8L42.9,45.8a2.746,2.746,0,0,0,3,4.6,9.368,9.368,0,0,0,1.4,7L65.2,84.2a9.315,9.315,0,0,0,12.9,2.6l.4-.3a9.315,9.315,0,0,0,2.6-12.9L63.2,46.8a9.6,9.6,0,0,0-5.9-4A2.712,2.712,0,0,0,58,39ZM71.2,79.8A1.3,1.3,0,0,1,69,81.2L52.1,55.9a1.3,1.3,0,1,1,2.2-1.4ZM77,75.9a1.3,1.3,0,0,1-2.2,1.4L57.9,52a1.3,1.3,0,0,1,2.2-1.4Z"/>
    <path id="Path_8214" data-name="Path 8214" class="cls-3" d="M31.6,21,44.8,40.8l4-2.7L35.6,18.3l-.7-6.6a.758.758,0,0,0-.2-.4L26.2,2a.619.619,0,0,0-.8-.1L20.5,5.2a.5.5,0,0,0-.3.8l5.3,11.5.3.3Z"/>
    <path id="Path_8215" data-name="Path 8215" class="cls-4" d="M50.4,34.5,67.9,9.4a6.06,6.06,0,0,0,.8-4.2l-3.5,5A.721.721,0,1,1,64,9.4l3.5-5a5.692,5.692,0,0,0-3.6,2.2L47.5,30.1Z"/>
  </g>
</svg>
