<?xml version="1.0" encoding="utf-8"?>
<!-- Generator: Adobe Illustrator 22.1.0, SVG Export Plug-In . SVG Version: 6.00 Build 0)  -->
<svg version="1.1" id="Layer_1" xmlns="http://www.w3.org/2000/svg" xmlns:xlink="http://www.w3.org/1999/xlink" x="0px" y="0px"
	 width="100px" height="101.7px" viewBox="0 0 100 101.7" style="enable-background:new 0 0 100 101.7;" xml:space="preserve">
<style type="text/css">
	.st0{stroke:#000000;stroke-miterlimit:10;}
	.st1{fill:url(#SVGID_1_);}
	.st2{fill:url(#SVGID_2_);}
	.st3{fill:url(#SVGID_3_);}
	.st4{fill:url(#SVGID_4_);}
	.st5{fill:url(#SVGID_5_);}
	.st6{fill:url(#SVGID_6_);}
	.st7{fill:url(#SVGID_7_);}
	.st8{fill:url(#SVGID_8_);}
	.st9{enable-background:new    ;}
	.st10{fill:url(#SVGID_9_);}
	.st11{fill:url(#SVGID_10_);}
	.st12{fill:url(#SVGID_11_);}
	.st13{fill:#333333;}
	.st14{fill:url(#SVGID_12_);}
</style>
<g>
	<path class="st13" d="M43.3,88.7h-2.9L39,83.9H27.1l-1.4,4.8h-2.9c-0.9,0-1.5,0.7-1.5,1.5s0.7,1.5,1.5,1.5h20.6
		c0.9,0,1.5-0.7,1.5-1.5C45,89.4,44.1,88.7,43.3,88.7z"/>
	<path class="st13" d="M53,74H12.9V47.8h24c0-0.2,0-0.5,0-0.7v-3.2H12.1c-1.7,0-3.1,1.4-3.1,3.1v32.2c0,1.7,1.4,3.1,3.1,3.1H54
		c1.7,0,3.1-1.4,3.1-3.1V55.5h-3.9V74H53z M33,80.3c-1.2,0-2-0.9-2-2s0.9-2,2-2c1,0,2,0.9,2,2C35.1,79.3,34.1,80.3,33,80.3z"/>
	<path class="st13" d="M87.8,14.9c0-2.7-2.2-4.9-4.9-4.9H48.4c-2.7,0-4.9,2.2-4.9,4.9v25.7h44.3V14.9z M82.8,35.7H48.4V14.9H83v20.8
		H82.8z"/>
	<path class="st13" d="M71.9,43.9L70,47.1h-8.7l-1.9-3.2H40.4v3.2c0,2.7,2.2,4.9,4.9,4.9h40.7c2.7,0,4.9-2.2,4.9-4.9v-3.2H71.9z"/>
	<path class="st13" d="M75.3,68.2H60.5v3.4H77c1,0,1.7-0.7,1.7-1.7V55.5h-3.4V68.2z"/>
	<path class="st13" d="M23,26.1h17v-3.4H21.3c-1,0-1.7,0.7-1.7,1.7v16H23C23,40.5,23,26.1,23,26.1z"/>
</g>
</svg>
