<?xml version="1.0" encoding="utf-8"?>
<!-- Generator: Adobe Illustrator 22.1.0, SVG Export Plug-In . SVG Version: 6.00 Build 0)  -->
<svg version="1.1" id="Layer_1" xmlns="http://www.w3.org/2000/svg" xmlns:xlink="http://www.w3.org/1999/xlink" x="0px" y="0px"
	 width="100px" height="101.7px" viewBox="0 0 100 101.7" style="enable-background:new 0 0 100 101.7;" xml:space="preserve">
<style type="text/css">
	.st0{stroke:#000000;stroke-miterlimit:10;}
	.st1{fill:url(#SVGID_1_);}
	.st2{fill:url(#SVGID_2_);}
	.st3{fill:url(#SVGID_3_);}
	.st4{fill:url(#SVGID_4_);}
	.st5{fill:url(#SVGID_5_);}
	.st6{fill:url(#SVGID_6_);}
	.st7{fill:url(#SVGID_7_);}
	.st8{fill:url(#SVGID_8_);}
	.st9{enable-background:new    ;}
	.st10{fill:url(#SVGID_9_);}
	.st11{fill:url(#SVGID_10_);}
	.st12{fill:url(#SVGID_11_);}
	.st13{fill:#333333;}
	.st14{fill:url(#SVGID_12_);}
</style>
<g>
	<path class="st13" d="M18.7,92.1c0.5,0.5,1.2,0.8,1.9,0.8c0.7,0,1.4-0.3,1.9-0.8l30.9-30.9c1-1,1-2.7,0-3.8l-0.2-0.1
		c-0.3-0.3-0.3-0.7,0-0.9l0.9-0.9c0.3-0.3,0.7-0.3,1,0l0.1,0.1c1,1,2.8,1,3.8,0l1.3-1.3c0.5-0.5,0.8-1.2,0.8-1.9s-0.3-1.4-0.8-1.9
		l-3-3l30.9-30.9l0.1-0.1l3.6-5c0.3-0.4,0.2-0.9-0.1-1.3l-1.2-1.1c-0.3-0.3-0.9-0.4-1.3-0.1l-5,3.6l-0.1,0.1L53.3,43.5l-3-3
		c-1-1-2.7-1-3.8,0l-1.3,1.3c-1,1-1,2.7,0,3.8l0.1,0.1c0.3,0.3,0.3,0.7,0,0.9l-0.9,0.9c-0.3,0.3-0.7,0.3-1,0l-0.1-0.1
		c-1-1-2.8-1-3.8,0l0,0L8.8,78.3C8.3,78.8,8,79.5,8,80.2s0.3,1.4,0.8,1.9L18.7,92.1z M85.5,14.1l4.1-2.9l-2.9,4.1L55.9,46.1
		l-1.2-1.2L85.5,14.1z M10.2,79.8l30.9-30.9l0,0c0.3-0.3,0.7-0.3,1,0l0.1,0.1c1,1,2.8,1,3.8,0l0.9-0.9c1-1,1-2.7,0-3.8l-0.1-0.1
		c-0.3-0.3-0.3-0.7,0-0.9l1.3-1.3c0.3-0.3,0.7-0.3,0.9,0l9.9,9.9c0.1,0.1,0.2,0.3,0.2,0.5s-0.1,0.3-0.2,0.5l-1.3,1.2
		c-0.3,0.3-0.7,0.3-1,0L56.5,54c-1-1-2.8-1-3.8,0l-0.9,0.9c-1,1-1,2.7,0,3.8l0.1,0.1c0.3,0.3,0.3,0.7,0,0.9L21.1,90.6
		c-0.3,0.3-0.7,0.3-0.9,0l-9.9-9.9c-0.1-0.1-0.2-0.3-0.2-0.5S10.1,79.9,10.2,79.8z"/>
	<path class="st13" d="M20.6,84.2c0.2,0.2,0.5,0.3,0.7,0.3s0.5-0.1,0.7-0.3L45.2,61c0.4-0.4,0.4-1,0-1.4s-1-0.4-1.4,0L20.6,82.8
		C20.3,83.2,20.3,83.9,20.6,84.2z"/>
	<path class="st13" d="M17.3,80.5c0.3,0,0.5-0.1,0.7-0.3L41.2,57c0.4-0.4,0.4-1,0-1.4s-1-0.4-1.4,0L16.6,78.8c-0.4,0.4-0.4,1,0,1.4
		C16.8,80.4,17,80.5,17.3,80.5z"/>
</g>
</svg>
