<svg xmlns="http://www.w3.org/2000/svg" xmlns:xlink="http://www.w3.org/1999/xlink" width="87" height="82.414" viewBox="0 0 87 82.414">
  <defs>
    <style>
      .cls-1 {
        fill: url(#linear-gradient);
      }
    </style>
    <linearGradient id="linear-gradient" x1="1" y1="0.5" x2="0" y2="0.5" gradientUnits="objectBoundingBox">
      <stop offset="0" stop-color="#1270e3"/>
      <stop offset="1" stop-color="#59c2ff"/>
    </linearGradient>
  </defs>
  <path id="Union_1" data-name="Union 1" class="cls-1" d="M43.5,82.342c-.8.013-11.6.154-12.749,0-1.19-.161,0-1.114,1.506-2.221a4.253,4.253,0,0,0,1.667-2.776l.566-3.613H52.51l.566,3.615a4.257,4.257,0,0,0,1.667,2.774c1.5,1.112,2.694,2.06,1.506,2.221-.4.054-1.968.072-3.879.072C48.792,82.414,44.019,82.351,43.5,82.342ZM3.481,70.253A3.481,3.481,0,0,1,0,66.772V16.313a3.481,3.481,0,0,1,3.481-3.481H53.434l-3.678,5.221H5.221V59.812H81.781V18.054H67.861l4.8-5.221H83.519A3.482,3.482,0,0,1,87,16.313V66.772a3.482,3.482,0,0,1-3.481,3.481ZM23.2,51.244c4.814-.036,5.414-1.2,6.984-6.031,2.895-7.629,15.928,2,7.85,5.338a26.555,26.555,0,0,1-9.846,1.7C23.432,52.25,20.257,51.266,23.2,51.244ZM39.13,42.465c-2.336-1.881-2.347-1.3.092-4.329l24.7-35.092C66.358.02,70.228-.908,72.566.975s2.253,5.859-.186,8.888l-29.038,31.6c-1.329,1.649-1.765,2.358-2.266,2.358C40.658,43.816,40.195,43.322,39.13,42.465ZM64.649,3.792a13.423,13.423,0,0,1,1.566,1.383s.423-1.8,3.785-3.787a4.978,4.978,0,0,0-.664-.038A5.342,5.342,0,0,0,64.649,3.792Z" transform="translate(0 0)"/>
</svg>
