<?xml version="1.0" encoding="utf-8"?>
<!-- Generator: Adobe Illustrator 22.1.0, SVG Export Plug-In . SVG Version: 6.00 Build 0)  -->
<svg version="1.1"
	 id="Layer_1" xmlns:cc="http://creativecommons.org/ns#" xmlns:dc="http://purl.org/dc/elements/1.1/" xmlns:inkscape="http://www.inkscape.org/namespaces/inkscape" xmlns:rdf="http://www.w3.org/1999/02/22-rdf-syntax-ns#" xmlns:sodipodi="http://sodipodi.sourceforge.net/DTD/sodipodi-0.dtd" xmlns:svg="http://www.w3.org/2000/svg"
	 xmlns="http://www.w3.org/2000/svg" xmlns:xlink="http://www.w3.org/1999/xlink" x="0px" y="0px" viewBox="0 0 100 101.8"
	 style="enable-background:new 0 0 100 101.8;" xml:space="preserve">
<style type="text/css">
	.st0{fill:url(#SVGID_1_);}
</style>
<g transform="translate(0,-952.36218)">
	<g>
		<radialGradient id="SVGID_1_" cx="31" cy="983.6378" r="75.3293" gradientUnits="userSpaceOnUse">
			<stop  offset="0" style="stop-color:#FCEE21"/>
			<stop  offset="0.2044" style="stop-color:#FCDE23"/>
			<stop  offset="0.6011" style="stop-color:#FBB626"/>
			<stop  offset="0.9995" style="stop-color:#FB872B"/>
		</radialGradient>
		<path class="st0" d="M74.9,1045.6l-23.1-12.2c-0.7-0.4-1.6-0.4-2.4,0l-22.7,13c-1.8,1-3.9-0.5-3.6-2.5l4-27.1
			c0.1-0.8-0.1-1.6-0.7-2.1L7.3,995.7c-1.4-1.4-0.7-3.8,1.3-4.2l25.8-4.3c0.8-0.1,1.5-0.7,1.8-1.4l11.1-24.5
			c0.9-1.9,3.5-1.9,4.4-0.1l11.8,24.1c0.4,0.7,1.1,1.2,1.9,1.4l25.9,3.5c2,0.3,2.8,2.7,1.4,4.1l-18.6,19.5c-0.5,0.6-0.8,1.4-0.6,2.1
			l4.8,26.9C78.8,1045,76.7,1046.5,74.9,1045.6z"/>
	</g>
</g>
</svg>
